<svg width="38" height="32" viewBox="0 0 38 32" fill="none" xmlns="http://www.w3.org/2000/svg">
<rect x="0.5" y="0.5" width="37" height="31" rx="3.5" fill="white"/>
<rect x="0.5" y="0.5" width="37" height="31" rx="3.5" stroke="#D4D4D4"/>
<path d="M26.4295 11.5L24.9859 25.1055C24.932 25.6141 24.503 26 23.9915 26H13.4828C12.9714 26 12.5424 25.6141 12.4884 25.1055L11.0449 11.5M14.7684 14.0016L14.9864 20.9982M18.4676 14.5V21.5M22.1669 14.0016L21.9493 20.9982M18.4808 6.5C17.0008 6.5 15.7951 7.6032 15.6654 9H19.5064C19.6445 9 19.7564 9.11193 19.7564 9.25C19.7564 9.38807 19.6445 9.5 19.5064 9.5H9.25C9.11193 9.5 9 9.38807 9 9.25C9 9.11193 9.11193 9 9.25 9H15.1635C15.2943 7.3169 16.7349 6 18.4808 6C20.2266 6 21.6672 7.3169 21.798 9H28.2244C28.3624 9 28.4744 9.11193 28.4744 9.25C28.4744 9.38807 28.3624 9.5 28.2244 9.5H21.5577C21.4196 9.5 21.3077 9.38807 21.3077 9.25C21.3077 7.73715 20.048 6.5 18.4808 6.5Z" stroke="#757575" stroke-linecap="round"/>
</svg>
